<svg fill="#000000" version="1.1" id="Layer_1" xmlns="http://www.w3.org/2000/svg" xmlns:xlink="http://www.w3.org/1999/xlink" viewBox="-76.8 -76.8 665.60 665.60" xml:space="preserve" width="100px" height="100px"><g id="SVGRepo_bgCarrier" stroke-width="0"></g><g id="SVGRepo_tracerCarrier" stroke-linecap="round" stroke-linejoin="round"></g><g id="SVGRepo_iconCarrier"> <g> <g> <path d="M248.171,91.682c-90.606,0-164.318,73.714-164.318,164.318s73.712,164.318,164.318,164.318S412.489,346.605,412.489,256 S338.777,91.682,248.171,91.682z M248.171,404.84c-82.071,0-148.84-66.769-148.84-148.84s66.769-148.84,148.84-148.84 s148.84,66.769,148.84,148.84S330.242,404.84,248.171,404.84z"></path> </g> </g> <g> <g> <path d="M279.487,69.227h-31.742v0.005c-103.361,0.231-187.379,84.386-187.379,187.8s84.018,187.568,187.379,187.8v0.005h31.742 c103.556,0,187.805-84.249,187.805-187.805S383.043,69.227,279.487,69.227z M418.153,154.874 c19.793,26.794,32.028,59.493,33.497,94.934h-15.827c-1.327-34.907-12.226-67.404-30.14-94.934H418.153z M405.264,139.396h-10.829 c-11.929-14.804-26.039-27.779-41.862-38.4C372.519,110.376,390.371,123.484,405.264,139.396z M248.171,429.359 c-95.021,0-172.327-77.305-172.327-172.327S153.15,84.705,248.171,84.705s172.327,77.306,172.327,172.327 S343.192,429.359,248.171,429.359z M352.572,413.068c15.826-10.623,29.949-23.593,41.88-38.4h10.838 C390.395,390.587,372.525,403.685,352.572,413.068z M418.177,359.19h-12.492c17.74-27.261,28.598-59.387,30.099-93.903h15.827 C449.951,300.326,437.775,332.655,418.177,359.19z"></path> </g> </g> <g> <g> <rect x="326.172" y="476.829" width="78.424" height="15.478"></rect> </g> </g> <g> <g> <rect x="420.075" y="476.829" width="31.989" height="15.478"></rect> </g> </g> <g> <g> <rect x="467.542" y="476.829" width="15.478" height="15.478"></rect> </g> </g> <g> <g> <polygon points="310.69,476.826 46.12,476.826 57.92,465.025 46.974,454.08 18.015,483.04 46.975,512 57.919,501.054 49.169,492.304 310.69,492.304 "></polygon> </g> </g> <g> <g> <polygon points="465.024,0 454.081,10.945 464.895,21.76 201.31,21.76 201.31,37.238 463.817,37.238 454.08,46.974 465.025,57.92 493.985,28.959 "></polygon> </g> </g> <g> <g> <rect x="107.41" y="21.763" width="78.424" height="15.478"></rect> </g> </g> <g> <g> <rect x="59.943" y="21.763" width="31.989" height="15.478"></rect> </g> </g> <g> <g> <rect x="28.986" y="21.763" width="15.478" height="15.478"></rect> </g> </g> <g> <g> <path d="M250.228,252.284c-11.361-4.328-16.545-7.577-16.545-14.794c0-6.491,5.264-11.904,14.637-11.904 c8.119,0,14.448,2.89,17.873,5.053l3.975-11.545c-4.871-2.89-12.833-5.413-21.671-5.413c-0.19,0,0.28,0.04-0.752,0.042v-20.67 h-15.478v24.297c-8.255,4.478-13.807,12.613-13.807,21.943c0,10.467,7.463,19.121,23.151,24.718 c11.729,4.328,16.27,8.479,16.27,16.055c0,7.21-5.398,12.982-16.943,12.982c-7.936,0-16.223-3.242-20.918-6.308l-4.087,12.079 c4.346,2.559,10.142,4.432,16.334,5.335v22.011h15.478v-21.934c16.51-2.344,25.282-12.263,25.282-25.612 C273.027,265.633,265.381,258.057,250.228,252.284z"></path> </g> </g> </g></svg>